Coordinates
version=1
nRows=32
nColumns=22
inDegrees=yes

Units are S.I. units (second, meters, Newtons, ...)
If the header above contains a line with 'inDegrees', this indicates whether rotational values are in degrees (yes) or radians (no).

endheader
time	pelvis_tilt	pelvis_list	pelvis_rotation	pelvis_tx	pelvis_ty	pelvis_tz	hip_flexion_r	hip_adduction_r	hip_rotation_r	knee_angle_r	ankle_angle_r	subtalar_angle_r	hip_flexion_l	hip_adduction_l	hip_rotation_l	knee_angle_l	ankle_angle_l	subtalar_angle_l	lumbar_extension	lumbar_bending	lumbar_rotation
      1.71000000	    -11.82286710	     -1.68310285	     -3.45746792	     -0.46306211	      0.97129644	      0.33088573	     37.79028142	     -0.28982303	     -6.61004320	    -20.79126080	     13.49142696	      2.45866488	     14.18212232	      0.94150486	     -6.61851467	    -19.39538313	     23.99470754	     -4.49874125	     -1.11079347	      1.42561128	      2.56831154
      1.72000000	    -11.82669031	     -1.65852474	     -3.36683583	     -0.45941454	      0.97072002	      0.33181833	     37.79564216	     -0.25491747	     -6.45734179	    -20.59158256	     13.54220167	      2.50960376	     14.00312561	      0.93153323	     -6.53674418	    -19.48444339	     24.20779557	     -4.47174976	     -1.06570289	      1.40536247	      2.47347350
      1.73000000	    -11.78214794	     -1.69264748	     -3.26234081	     -0.45559946	      0.97020693	      0.33277992	     37.70128511	     -0.17724221	     -6.37966607	    -20.37081044	     13.61963281	      2.68686448	     13.77389947	      0.85590823	     -6.45883875	    -19.60192736	     24.49265364	     -4.36979910	     -1.07237349	      1.45238202	      2.41014962
      1.74000000	    -11.76679594	     -1.69252426	     -3.16671855	     -0.45170796	      0.96960550	      0.33381407	     37.63536877	     -0.11172524	     -6.23152363	    -20.18876277	     13.69957726	      2.82353602	     13.56833267	      0.81095226	     -6.37168799	    -19.71294958	     24.75413059	     -4.28307941	     -1.03744884	      1.46103838	      2.33760169
      1.75000000	    -11.74381919	     -1.70462278	     -3.06914489	     -0.44769752	      0.96899356	      0.33490244	     37.53757197	     -0.02783737	     -6.07237685	    -20.02435898	     13.76743742	      3.00408946	     13.35325279	      0.74603421	     -6.29807912	    -19.83840535	     25.01014229	     -4.15201331	     -1.00659710	      1.48646443	      2.23967557
      1.76000000	    -11.76241188	     -1.69227148	     -2.97257078	     -0.44361675	      0.96826348	      0.33604934	     37.48879346	      0.04684537	     -5.87032846	    -19.92377834	     13.82223251	      3.06111385	     13.17670239	      0.70659517	     -6.18089530	    -19.96131970	     25.27666502	     -4.10103790	     -0.92014237	      1.48276120	      2.17518616
      1.77000000	    -11.75080395	     -1.72628617	     -2.86923227	     -0.43937028	      0.96758441	      0.33727248	     37.35653681	      0.16893574	     -5.69431863	    -19.80516595	     13.82699067	      3.21740917	     12.97069383	      0.60217736	     -6.11938037	    -20.11319220	     25.57286822	     -3.92886366	     -0.86163060	      1.53092596	      2.09644724
      1.78000000	    -11.75880369	     -1.73894080	     -2.77343469	     -0.43504805	      0.96683894	      0.33856389	     37.25861686	      0.28987345	     -5.45213873	    -19.77398770	     13.77844936	      3.30271298	     12.77339046	      0.52106778	     -6.01318579	    -20.25220512	     25.85578584	     -3.78787702	     -0.77669702	      1.55475148	      2.04124945
      1.79000000	    -11.76813230	     -1.76406270	     -2.67430784	     -0.43061526	      0.96608243	      0.33993181	     37.14483251	      0.43503797	     -5.17983920	    -19.78111160	     13.64189421	      3.35762796	     12.57910135	      0.41711214	     -5.92056482	    -20.40815431	     26.13513085	     -3.63181539	     -0.68459455	      1.59153011	      1.97998918
      1.80000000	    -11.76416158	     -1.80155677	     -2.57367874	     -0.42608493	      0.96534155	      0.34137320	     37.01047594	      0.60473966	     -4.87088334	    -19.84410111	     13.41497594	      3.36504519	     12.37780833	      0.29112177	     -5.84246752	    -20.59128648	     26.40780265	     -3.42135175	     -0.60697720	      1.64147408	      1.92242085
      1.81000000	    -11.76640063	     -1.85008166	     -2.48373543	     -0.42144537	      0.96459900	      0.34291675	     36.89220225	      0.80153568	     -4.54506090	    -19.98446686	     13.07151671	      3.32009983	     12.16920044	      0.14663588	     -5.75296763	    -20.76382857	     26.68337867	     -3.24315055	     -0.51501873	      1.70200691	      1.88146471
      1.82000000	    -11.77305253	     -1.91508658	     -2.40387600	     -0.41669173	      0.96387865	      0.34452711	     36.78859414	      1.02458848	     -4.21674184	    -20.19542344	     12.59955003	      3.25075063	     11.94933895	     -0.01948047	     -5.66394155	    -20.91901279	     26.94999429	     -3.09313914	     -0.40943251	      1.78708424	      1.84994636
      1.83000000	    -11.73009287	     -2.00897995	     -2.32467870	     -0.41186658	      0.96326247	      0.34622244	     36.64582723	      1.28233793	     -3.89083981	    -20.47013798	     12.05263591	      2.96775287	     11.69884906	     -0.22789895	     -5.60546114	    -21.13026211	     27.23046884	     -2.79100847	     -0.37004229	      1.90088240	      1.82795089
      1.84000000	    -11.71903741	     -2.12594612	     -2.26549502	     -0.40698342	      0.96265945	      0.34799345	     36.56915663	      1.56839561	     -3.59326256	    -20.82588801	     11.41216471	      2.79500002	     11.47701404	     -0.46351005	     -5.52348111	    -21.34284424	     27.43714850	     -2.64108637	     -0.29060136	      2.04428601	      1.84895017
      1.85000000	    -11.68316811	     -2.26811501	     -2.21457561	     -0.40202053	      0.96216229	      0.34982413	     36.49215870	      1.87555560	     -3.33991229	    -21.24679434	     10.73703978	      2.49082527	     11.23124910	     -0.73194082	     -5.45780392	    -21.57207235	     27.64009622	     -2.42268114	     -0.24138166	      2.21906983	      1.87250765
      1.86000000	    -11.62431043	     -2.40666407	     -2.16976510	     -0.39697646	      0.96177495	      0.35169166	     36.42958694	      2.16704854	     -3.15372297	    -21.75154316	     10.07558240	      2.06148104	     10.95188443	     -0.99696297	     -5.39680693	    -21.79165273	     27.81810137	     -2.14630746	     -0.21767334	      2.39017380	      1.88610298
      1.87000000	    -11.58330132	     -2.57348092	     -2.14196414	     -0.39191529	      0.96144669	      0.35362412	     36.39932181	      2.48513877	     -2.97937630	    -22.28917712	      9.46014311	      1.80797852	     10.71168357	     -1.29679653	     -5.31870528	    -22.05925528	     27.90588301	     -1.96885858	     -0.17891915	      2.59520357	      1.93209749
      1.88000000	    -11.50784605	     -2.73495609	     -2.10524525	     -0.38679147	      0.96124690	      0.35553372	     36.35164515	      2.77244511	     -2.87599661	    -22.87702838	      8.90798904	      1.43674714	     10.43945700	     -1.58860938	     -5.24209002	    -22.33825906	     27.96546825	     -1.70455978	     -0.18341168	      2.79993411	      1.97164360
      1.89000000	    -11.41744829	     -2.87657919	     -2.06670408	     -0.38162616	      0.96114631	      0.35748087	     36.29664128	      3.02491762	     -2.82711190	    -23.49177933	      8.44792296	      1.07289519	     10.15609366	     -1.86032706	     -5.14943275	    -22.62673717	     27.96648839	     -1.42933099	     -0.20635442	      2.97615775	      1.99296738
      1.90000000	    -11.30793307	     -2.99348079	     -2.01693073	     -0.37640961	      0.96113803	      0.35942380	     36.22048583	      3.23254558	     -2.83732313	    -24.11870538	      8.10445418	      0.67770993	      9.85974474	     -2.10657065	     -5.05629686	    -22.92718356	     27.91467381	     -1.12340155	     -0.25060179	      3.12411631	      1.99440068
      1.91000000	    -11.20902447	     -3.11194992	     -1.94070985	     -0.37119229	      0.96119858	      0.36136403	     36.12080983	      3.42549946	     -2.86881319	    -24.69013756	      7.81781004	      0.36745356	      9.59740270	     -2.35061198	     -4.89416237	    -23.26117154	     27.80325749	     -0.86525444	     -0.28506297	      3.27181730	      1.96702410
      1.92000000	    -11.10033990	     -3.20399353	     -1.84665533	     -0.36594245	      0.96133542	      0.36331957	     35.98983816	      3.58057886	     -2.94844745	    -25.23291934	      7.63838301	     -0.02266828	      9.33783973	     -2.57069099	     -4.72541334	    -23.61152333	     27.64357683	     -0.56633725	     -0.32844786	      3.38406469	      1.90899718
      1.93000000	    -11.00060871	     -3.28684059	     -1.73536257	     -0.36068302	      0.96152582	      0.36530369	     35.83305480	      3.72484679	     -3.04746630	    -25.71702788	      7.52841868	     -0.48778611	      9.10795301	     -2.78717672	     -4.54431545	    -23.98989613	     27.44874780	     -0.24724270	     -0.35920223	      3.48135261	      1.82855143
      1.94000000	    -10.91367528	     -3.35647021	     -1.62387245	     -0.35541831	      0.96176061	      0.36734270	     35.65702420	      3.86721738	     -3.14946643	    -26.14549241	      7.46583186	     -1.06746524	      8.91185000	     -3.00133672	     -4.38649344	    -24.39889029	     27.21443689	      0.10921314	     -0.37293933	      3.55815353	      1.73682286
      1.95000000	    -10.84710079	     -3.43230986	     -1.48445000	     -0.35015824	      0.96203745	      0.36938683	     35.45703416	      4.01236157	     -3.27064078	    -26.49551017	      7.47131810	     -1.66541049	      8.76087423	     -3.21893042	     -4.16361140	    -24.83803087	     26.92513399	      0.47239604	     -0.35823761	      3.63775200	      1.62038454
      1.96000000	    -10.79245583	     -3.50772530	     -1.32577834	     -0.34491088	      0.96235664	      0.37143852	     35.23701374	      4.15606459	     -3.40754603	    -26.78910636	      7.52107620	     -2.28380241	      8.65151701	     -3.43944962	     -3.92438090	    -25.31705649	     26.60887130	      0.86059746	     -0.32680501	      3.71372188	      1.47130717
      1.97000000	    -10.75284740	     -3.58270964	     -1.17330706	     -0.33966595	      0.96271123	      0.37351704	     34.99958025	      4.31165060	     -3.53721729	    -27.02342756	      7.61524268	     -2.92469173	      8.57851250	     -3.65855191	     -3.66350985	    -25.83041296	     26.25985536	      1.28872715	     -0.27391514	      3.78890626	      1.32849511
      1.98000000	    -10.72022668	     -3.66515824	     -0.99421666	     -0.33442965	      0.96310804	      0.37554237	     34.74211469	      4.45870768	     -3.70345495	    -27.21387174	      7.77739115	     -3.41499785	      8.53911055	     -3.87188568	     -3.32371922	    -26.37675493	     25.88931027	      1.66850557	     -0.20876176	      3.87430098	      1.16704344
      1.99000000	    -10.70125335	     -3.74563771	     -0.85049349	     -0.32919502	      0.96352481	      0.37764680	     34.47430162	      4.63531531	     -3.81313922	    -27.36000757	      7.94527636	     -4.00738461	      8.53805033	     -4.09636294	     -3.04707588	    -26.97017222	     25.48753839	      2.17149682	     -0.12554608	      3.95507117	      1.04274171
      2.00000000	    -10.68797464	     -3.81415978	     -0.72654495	     -0.32397654	      0.96396469	      0.37977076	     34.19406225	      4.81502307	     -3.88486651	    -27.47400724	      8.14075771	     -4.54015480	      8.56834938	     -4.30833214	     -2.78475296	    -27.60670856	     25.06495934	      2.69527112	     -0.03527622	      4.02297420	      0.94298277
      2.01000000	    -10.68127424	     -3.87858056	     -0.62209517	     -0.31877395	      0.96441952	      0.38188777	     33.90504057	      4.99779894	     -3.94096467	    -27.56147235	      8.37104524	     -4.97161181	      8.63291828	     -4.51209715	     -2.52298393	    -28.29038910	     24.62016951	      3.20506352	      0.06162376	      4.09221288	      0.86825270
      2.02000000	    -10.68135069	     -3.93908468	     -0.54101424	     -0.31360149	      0.96487239	      0.38402383	     33.61872723	      5.19005800	     -3.96147878	    -27.64175124	      8.62080776	     -5.35340927	      8.73388922	     -4.71454258	     -2.28527180	    -29.02241923	     24.14661852	      3.74427495	      0.16369082	      4.15984812	      0.81268297
